<?xml version="1.0" encoding="UTF-8" standalone="no"?>
<!DOCTYPE svg PUBLIC "-//W3C//DTD SVG 1.1//EN"
 "http://www.w3.org/Graphics/SVG/1.1/DTD/svg11.dtd">
<!-- Generated by graphviz version 2.43.0 (0)
 -->
<!-- Title: %3 Pages: 1 -->
<svg width="945pt" height="574pt"
 viewBox="0.00 0.00 944.73 574.08" xmlns="http://www.w3.org/2000/svg" xmlns:xlink="http://www.w3.org/1999/xlink">
<g id="graph0" class="graph" transform="scale(1 1) rotate(0) translate(4 570.08)">
<title>%3</title>
<polygon fill="white" stroke="transparent" points="-4,4 -4,-570.08 940.73,-570.08 940.73,4 -4,4"/>
<!-- A -->
<g id="node1" class="node">
<title>A</title>
<ellipse fill="none" stroke="black" cx="595.16" cy="-539.21" rx="103.48" ry="26.74"/>
<text text-anchor="middle" x="595.16" y="-543.01" font-family="Times,serif" font-size="14.00">Raw Logs</text>
<text text-anchor="middle" x="595.16" y="-528.01" font-family="Times,serif" font-size="14.00">apache_access.log</text>
</g>
<!-- B -->
<g id="node2" class="node">
<title>B</title>
<ellipse fill="none" stroke="black" cx="595.16" cy="-438.86" rx="176.55" ry="37.45"/>
<text text-anchor="middle" x="595.16" y="-450.16" font-family="Times,serif" font-size="14.00">Parser</text>
<text text-anchor="middle" x="595.16" y="-435.16" font-family="Times,serif" font-size="14.00">apache &#45;&gt; JSONL</text>
<text text-anchor="middle" x="595.16" y="-420.16" font-family="Times,serif" font-size="14.00">sample_logs/apache_access.jsonl</text>
</g>
<!-- A&#45;&gt;B -->
<g id="edge1" class="edge">
<title>A&#45;&gt;B</title>
<path fill="none" stroke="black" d="M595.16,-512.11C595.16,-504.26 595.16,-495.39 595.16,-486.63"/>
<polygon fill="black" stroke="black" points="598.66,-486.45 595.16,-476.45 591.66,-486.45 598.66,-486.45"/>
</g>
<!-- C -->
<g id="node3" class="node">
<title>C</title>
<ellipse fill="none" stroke="black" cx="595.16" cy="-327.91" rx="215.84" ry="37.45"/>
<text text-anchor="middle" x="595.16" y="-339.21" font-family="Times,serif" font-size="14.00">Detection</text>
<text text-anchor="middle" x="595.16" y="-324.21" font-family="Times,serif" font-size="14.00">rules/detection_rules.yaml &#45;&gt; detections</text>
<text text-anchor="middle" x="595.16" y="-309.21" font-family="Times,serif" font-size="14.00">sample_logs/detections.jsonl</text>
</g>
<!-- B&#45;&gt;C -->
<g id="edge2" class="edge">
<title>B&#45;&gt;C</title>
<path fill="none" stroke="black" d="M595.16,-401.28C595.16,-393.11 595.16,-384.33 595.16,-375.8"/>
<polygon fill="black" stroke="black" points="598.66,-375.58 595.16,-365.58 591.66,-375.58 598.66,-375.58"/>
</g>
<!-- D -->
<g id="node4" class="node">
<title>D</title>
<ellipse fill="none" stroke="black" cx="595.16" cy="-216.96" rx="195.32" ry="37.45"/>
<text text-anchor="middle" x="595.16" y="-228.26" font-family="Times,serif" font-size="14.00">Alerting</text>
<text text-anchor="middle" x="595.16" y="-213.26" font-family="Times,serif" font-size="14.00">min_severity • dedup • rate_limit</text>
<text text-anchor="middle" x="595.16" y="-198.26" font-family="Times,serif" font-size="14.00">routes: console/slack/email/webhook</text>
</g>
<!-- C&#45;&gt;D -->
<g id="edge3" class="edge">
<title>C&#45;&gt;D</title>
<path fill="none" stroke="black" d="M595.16,-290.33C595.16,-282.15 595.16,-273.37 595.16,-264.85"/>
<polygon fill="black" stroke="black" points="598.66,-264.63 595.16,-254.63 591.66,-264.63 598.66,-264.63"/>
</g>
<!-- E -->
<g id="node5" class="node">
<title>E</title>
<ellipse fill="none" stroke="black" cx="380.16" cy="-116.61" rx="285.84" ry="26.74"/>
<text text-anchor="middle" x="380.16" y="-120.41" font-family="Times,serif" font-size="14.00">Auto&#45;Responder</text>
<text text-anchor="middle" x="380.16" y="-105.41" font-family="Times,serif" font-size="14.00">playbooks: block_ip, slack/email/webhook, write_ticket</text>
</g>
<!-- D&#45;&gt;E -->
<g id="edge4" class="edge">
<title>D&#45;&gt;E</title>
<path fill="none" stroke="black" d="M521.47,-182.25C496.68,-170.91 469.22,-158.35 445.15,-147.34"/>
<polygon fill="black" stroke="black" points="446.31,-144.02 435.76,-143.04 443.39,-150.38 446.31,-144.02"/>
</g>
<!-- S1 -->
<g id="node8" class="node">
<title>S1</title>
<ellipse fill="none" stroke="black" cx="810.16" cy="-116.61" rx="126.64" ry="26.74"/>
<text text-anchor="middle" x="810.16" y="-120.41" font-family="Times,serif" font-size="14.00">.state/alerts_state.json</text>
<text text-anchor="middle" x="810.16" y="-105.41" font-family="Times,serif" font-size="14.00">(dedup &amp; rate limit)</text>
</g>
<!-- D&#45;&gt;S1 -->
<g id="edge7" class="edge">
<title>D&#45;&gt;S1</title>
<path fill="none" stroke="black" stroke-dasharray="5,2" d="M668.85,-182.25C695.04,-170.27 724.21,-156.92 749.22,-145.48"/>
<polygon fill="black" stroke="black" points="750.95,-148.54 758.59,-141.2 748.04,-142.18 750.95,-148.54"/>
</g>
<!-- F -->
<g id="node6" class="node">
<title>F</title>
<ellipse fill="none" stroke="black" cx="125.16" cy="-26.87" rx="125.32" ry="26.74"/>
<text text-anchor="middle" x="125.16" y="-30.67" font-family="Times,serif" font-size="14.00">System Containment</text>
<text text-anchor="middle" x="125.16" y="-15.67" font-family="Times,serif" font-size="14.00">Windows Firewall rule</text>
</g>
<!-- E&#45;&gt;F -->
<g id="edge5" class="edge">
<title>E&#45;&gt;F</title>
<path fill="none" stroke="black" d="M307.43,-90.58C273.66,-78.97 233.57,-65.17 199.6,-53.48"/>
<polygon fill="black" stroke="black" points="200.32,-50.03 189.73,-50.09 198.05,-56.65 200.32,-50.03"/>
</g>
<!-- G -->
<g id="node7" class="node">
<title>G</title>
<ellipse fill="none" stroke="black" cx="380.16" cy="-26.87" rx="111.95" ry="26.74"/>
<text text-anchor="middle" x="380.16" y="-30.67" font-family="Times,serif" font-size="14.00">Knowledge/Records</text>
<text text-anchor="middle" x="380.16" y="-15.67" font-family="Times,serif" font-size="14.00">tickets/*.md</text>
</g>
<!-- E&#45;&gt;G -->
<g id="edge6" class="edge">
<title>E&#45;&gt;G</title>
<path fill="none" stroke="black" d="M380.16,-89.29C380.16,-81.32 380.16,-72.43 380.16,-63.94"/>
<polygon fill="black" stroke="black" points="383.66,-63.87 380.16,-53.87 376.66,-63.87 383.66,-63.87"/>
</g>
<!-- S2 -->
<g id="node9" class="node">
<title>S2</title>
<ellipse fill="none" stroke="black" cx="648.16" cy="-26.87" rx="138.69" ry="26.74"/>
<text text-anchor="middle" x="648.16" y="-30.67" font-family="Times,serif" font-size="14.00">.state/respond_state.json</text>
<text text-anchor="middle" x="648.16" y="-15.67" font-family="Times,serif" font-size="14.00">(cooldowns &amp; TTL)</text>
</g>
<!-- E&#45;&gt;S2 -->
<g id="edge8" class="edge">
<title>E&#45;&gt;S2</title>
<path fill="none" stroke="black" stroke-dasharray="5,2" d="M456.24,-90.7C491.74,-79.08 533.97,-65.26 569.76,-53.54"/>
<polygon fill="black" stroke="black" points="571.25,-56.73 579.67,-50.29 569.08,-50.08 571.25,-56.73"/>
</g>
</g>
</svg>
